<?xml version="1.0" encoding="UTF-8"?>
<!DOCTYPE svg PUBLIC "-//W3C//DTD SVG 1.1//EN" "http://www.w3.org/Graphics/SVG/1.1/DTD/svg11.dtd">
<svg xmlns="http://www.w3.org/2000/svg" style="background: transparent; background-color: transparent; color-scheme: light dark;" xmlns:xlink="http://www.w3.org/1999/xlink" version="1.1" width="1225px" height="1348px" viewBox="0 0 1225 1348"><defs><linearGradient x1="0%" y1="0%" x2="0%" y2="100%" id="drawio-svg-YrAJRbZXD4QwcOwPkMBc-gradient-light-dark_005200_89cf89_-1-light-dark_000000_ededed_-1-s-0"><stop offset="0%" stop-color="#005200" stop-opacity="1" style="stop-color: light-dark(rgb(0, 82, 0), rgb(137, 207, 137)); stop-opacity: 1;"/><stop offset="100%" stop-color="#000000" stop-opacity="1" style="stop-color: light-dark(rgb(0, 0, 0), rgb(237, 237, 237)); stop-opacity: 1;"/></linearGradient><linearGradient x1="0%" y1="0%" x2="0%" y2="100%" id="drawio-svg-YrAJRbZXD4QwcOwPkMBc-gradient-light-dark_00a500_22b022_-1-light-dark_005200_89cf89_-1-s-0"><stop offset="0%" stop-color="#00A500" stop-opacity="1" style="stop-color: light-dark(rgb(0, 165, 0), rgb(34, 176, 34)); stop-opacity: 1;"/><stop offset="100%" stop-color="#005200" stop-opacity="1" style="stop-color: light-dark(rgb(0, 82, 0), rgb(137, 207, 137)); stop-opacity: 1;"/></linearGradient><linearGradient x1="0%" y1="0%" x2="0%" y2="100%" id="drawio-svg-YrAJRbZXD4QwcOwPkMBc-gradient-light-dark_00ff00_008f00_-1-light-dark_00a200_26b126_-1-s-0"><stop offset="0%" stop-color="#00FF00" stop-opacity="1" style="stop-color: light-dark(rgb(0, 255, 0), rgb(0, 143, 0)); stop-opacity: 1;"/><stop offset="100%" stop-color="#00A200" stop-opacity="1" style="stop-color: light-dark(rgb(0, 162, 0), rgb(38, 177, 38)); stop-opacity: 1;"/></linearGradient></defs><g><g data-cell-id="0"><g data-cell-id="1"><g data-cell-id="frHDiylbWHgKtSTXTxFc-33"><g transform="translate(0.5,0.5)"><path d="M 815 1019 L 950 965 L 1085 1019 L 1085 1181 L 950 1235 L 815 1181 Z" fill="url(#drawio-svg-YrAJRbZXD4QwcOwPkMBc-gradient-light-dark_005200_89cf89_-1-light-dark_000000_ededed_-1-s-0)" stroke="#ffffff" stroke-width="10" stroke-miterlimit="10" pointer-events="all" style="fill: url(&quot;#drawio-svg-YrAJRbZXD4QwcOwPkMBc-gradient-light-dark_005200_89cf89_-1-light-dark_000000_ededed_-1-s-0&quot;); stroke: light-dark(rgb(255, 255, 255), rgb(18, 18, 18));"/><path d="M 815 1019 L 950 1073 L 1085 1019 M 950 1073 L 950 1235" fill="none" stroke="#ffffff" stroke-width="10" stroke-miterlimit="10" pointer-events="all" style="stroke: light-dark(rgb(255, 255, 255), rgb(18, 18, 18));"/></g></g><g data-cell-id="frHDiylbWHgKtSTXTxFc-12"><g transform="translate(0.5,0.5)"><path d="M 275 1019 L 410 965 L 545 1019 L 545 1181 L 410 1235 L 275 1181 Z" fill="url(#drawio-svg-YrAJRbZXD4QwcOwPkMBc-gradient-light-dark_00a500_22b022_-1-light-dark_005200_89cf89_-1-s-0)" stroke="#ffffff" stroke-width="10" stroke-miterlimit="10" pointer-events="all" style="fill: url(&quot;#drawio-svg-YrAJRbZXD4QwcOwPkMBc-gradient-light-dark_00a500_22b022_-1-light-dark_005200_89cf89_-1-s-0&quot;); stroke: light-dark(rgb(255, 255, 255), rgb(18, 18, 18));"/><path d="M 275 1019 L 410 1073 L 545 1019 M 410 1073 L 410 1235" fill="none" stroke="#ffffff" stroke-width="10" stroke-miterlimit="10" pointer-events="all" style="stroke: light-dark(rgb(255, 255, 255), rgb(18, 18, 18));"/></g></g><g data-cell-id="frHDiylbWHgKtSTXTxFc-13"><g transform="translate(0.5,0.5)"><path d="M 410 1073 L 545 1019 L 680 1073 L 680 1235 L 545 1289 L 410 1235 Z" fill="url(#drawio-svg-YrAJRbZXD4QwcOwPkMBc-gradient-light-dark_00a500_22b022_-1-light-dark_005200_89cf89_-1-s-0)" stroke="#ffffff" stroke-width="10" stroke-miterlimit="10" pointer-events="all" style="fill: url(&quot;#drawio-svg-YrAJRbZXD4QwcOwPkMBc-gradient-light-dark_00a500_22b022_-1-light-dark_005200_89cf89_-1-s-0&quot;); stroke: light-dark(rgb(255, 255, 255), rgb(18, 18, 18));"/><path d="M 410 1073 L 545 1127 L 680 1073 M 545 1127 L 545 1289" fill="none" stroke="#ffffff" stroke-width="10" stroke-miterlimit="10" pointer-events="all" style="stroke: light-dark(rgb(255, 255, 255), rgb(18, 18, 18));"/></g></g><g data-cell-id="frHDiylbWHgKtSTXTxFc-31"><g transform="translate(0.5,0.5)"><path d="M 815 1125 L 950 1071 L 1085 1125 L 1085 1287 L 950 1341 L 815 1287 Z" fill="url(#drawio-svg-YrAJRbZXD4QwcOwPkMBc-gradient-light-dark_005200_89cf89_-1-light-dark_000000_ededed_-1-s-0)" stroke="#ffffff" stroke-width="10" stroke-miterlimit="10" pointer-events="all" style="fill: url(&quot;#drawio-svg-YrAJRbZXD4QwcOwPkMBc-gradient-light-dark_005200_89cf89_-1-light-dark_000000_ededed_-1-s-0&quot;); stroke: light-dark(rgb(255, 255, 255), rgb(18, 18, 18));"/><path d="M 815 1125 L 950 1179 L 1085 1125 M 950 1179 L 950 1341" fill="none" stroke="#ffffff" stroke-width="10" stroke-miterlimit="10" pointer-events="all" style="stroke: light-dark(rgb(255, 255, 255), rgb(18, 18, 18));"/></g></g><g data-cell-id="frHDiylbWHgKtSTXTxFc-14"><g transform="translate(0.5,0.5)"><path d="M 545 1127 L 680 1073 L 815 1127 L 815 1289 L 680 1343 L 545 1289 Z" fill="url(#drawio-svg-YrAJRbZXD4QwcOwPkMBc-gradient-light-dark_00a500_22b022_-1-light-dark_005200_89cf89_-1-s-0)" stroke="#ffffff" stroke-width="10" stroke-miterlimit="10" pointer-events="all" style="fill: url(&quot;#drawio-svg-YrAJRbZXD4QwcOwPkMBc-gradient-light-dark_00a500_22b022_-1-light-dark_005200_89cf89_-1-s-0&quot;); stroke: light-dark(rgb(255, 255, 255), rgb(18, 18, 18));"/><path d="M 545 1127 L 680 1181 L 815 1127 M 680 1181 L 680 1343" fill="none" stroke="#ffffff" stroke-width="10" stroke-miterlimit="10" pointer-events="all" style="stroke: light-dark(rgb(255, 255, 255), rgb(18, 18, 18));"/></g></g><g data-cell-id="frHDiylbWHgKtSTXTxFc-21"><g transform="translate(0.5,0.5)"><path d="M 680 484 L 815 430 L 950 484 L 950 646 L 815 700 L 680 646 Z" fill="url(#drawio-svg-YrAJRbZXD4QwcOwPkMBc-gradient-light-dark_005200_89cf89_-1-light-dark_000000_ededed_-1-s-0)" stroke="#ffffff" stroke-width="10" stroke-miterlimit="10" pointer-events="all" style="fill: url(&quot;#drawio-svg-YrAJRbZXD4QwcOwPkMBc-gradient-light-dark_005200_89cf89_-1-light-dark_000000_ededed_-1-s-0&quot;); stroke: light-dark(rgb(255, 255, 255), rgb(18, 18, 18));"/><path d="M 680 484 L 815 538 L 950 484 M 815 538 L 815 700" fill="none" stroke="#ffffff" stroke-width="10" stroke-miterlimit="10" pointer-events="all" style="stroke: light-dark(rgb(255, 255, 255), rgb(18, 18, 18));"/></g></g><g data-cell-id="frHDiylbWHgKtSTXTxFc-1"><g transform="translate(0.5,0.5)"><path d="M 5 1019 L 140 965 L 275 1019 L 275 1181 L 140 1235 L 5 1181 Z" fill="url(#drawio-svg-YrAJRbZXD4QwcOwPkMBc-gradient-light-dark_00ff00_008f00_-1-light-dark_00a200_26b126_-1-s-0)" stroke="#ffffff" stroke-width="10" stroke-miterlimit="10" pointer-events="all" style="fill: url(&quot;#drawio-svg-YrAJRbZXD4QwcOwPkMBc-gradient-light-dark_00ff00_008f00_-1-light-dark_00a200_26b126_-1-s-0&quot;); stroke: light-dark(rgb(255, 255, 255), rgb(18, 18, 18));"/><path d="M 5 1019 L 140 1073 L 275 1019 M 140 1073 L 140 1235" fill="none" stroke="#ffffff" stroke-width="10" stroke-miterlimit="10" pointer-events="all" style="stroke: light-dark(rgb(255, 255, 255), rgb(18, 18, 18));"/></g></g><g data-cell-id="frHDiylbWHgKtSTXTxFc-2"><g transform="translate(0.5,0.5)"><path d="M 5 859 L 140 805 L 275 859 L 275 1021 L 140 1075 L 5 1021 Z" fill="url(#drawio-svg-YrAJRbZXD4QwcOwPkMBc-gradient-light-dark_00ff00_008f00_-1-light-dark_00a200_26b126_-1-s-0)" stroke="#ffffff" stroke-width="10" stroke-miterlimit="10" pointer-events="all" style="fill: url(&quot;#drawio-svg-YrAJRbZXD4QwcOwPkMBc-gradient-light-dark_00ff00_008f00_-1-light-dark_00a200_26b126_-1-s-0&quot;); stroke: light-dark(rgb(255, 255, 255), rgb(18, 18, 18));"/><path d="M 5 859 L 140 913 L 275 859 M 140 913 L 140 1075" fill="none" stroke="#ffffff" stroke-width="10" stroke-miterlimit="10" pointer-events="all" style="stroke: light-dark(rgb(255, 255, 255), rgb(18, 18, 18));"/></g></g><g data-cell-id="frHDiylbWHgKtSTXTxFc-3"><g transform="translate(0.5,0.5)"><path d="M 5 699 L 140 645 L 275 699 L 275 861 L 140 915 L 5 861 Z" fill="url(#drawio-svg-YrAJRbZXD4QwcOwPkMBc-gradient-light-dark_00ff00_008f00_-1-light-dark_00a200_26b126_-1-s-0)" stroke="#ffffff" stroke-width="10" stroke-miterlimit="10" pointer-events="all" style="fill: url(&quot;#drawio-svg-YrAJRbZXD4QwcOwPkMBc-gradient-light-dark_00ff00_008f00_-1-light-dark_00a200_26b126_-1-s-0&quot;); stroke: light-dark(rgb(255, 255, 255), rgb(18, 18, 18));"/><path d="M 5 699 L 140 753 L 275 699 M 140 753 L 140 915" fill="none" stroke="#ffffff" stroke-width="10" stroke-miterlimit="10" pointer-events="all" style="stroke: light-dark(rgb(255, 255, 255), rgb(18, 18, 18));"/></g></g><g data-cell-id="frHDiylbWHgKtSTXTxFc-4"><g transform="translate(0.5,0.5)"><path d="M 5 539 L 140 485 L 275 539 L 275 701 L 140 755 L 5 701 Z" fill="url(#drawio-svg-YrAJRbZXD4QwcOwPkMBc-gradient-light-dark_00ff00_008f00_-1-light-dark_00a200_26b126_-1-s-0)" stroke="#ffffff" stroke-width="10" stroke-miterlimit="10" pointer-events="all" style="fill: url(&quot;#drawio-svg-YrAJRbZXD4QwcOwPkMBc-gradient-light-dark_00ff00_008f00_-1-light-dark_00a200_26b126_-1-s-0&quot;); stroke: light-dark(rgb(255, 255, 255), rgb(18, 18, 18));"/><path d="M 5 539 L 140 593 L 275 539 M 140 593 L 140 755" fill="none" stroke="#ffffff" stroke-width="10" stroke-miterlimit="10" pointer-events="all" style="stroke: light-dark(rgb(255, 255, 255), rgb(18, 18, 18));"/></g></g><g data-cell-id="frHDiylbWHgKtSTXTxFc-5"><g transform="translate(0.5,0.5)"><path d="M 5 379 L 140 325 L 275 379 L 275 541 L 140 595 L 5 541 Z" fill="url(#drawio-svg-YrAJRbZXD4QwcOwPkMBc-gradient-light-dark_00ff00_008f00_-1-light-dark_00a200_26b126_-1-s-0)" stroke="#ffffff" stroke-width="10" stroke-miterlimit="10" pointer-events="all" style="fill: url(&quot;#drawio-svg-YrAJRbZXD4QwcOwPkMBc-gradient-light-dark_00ff00_008f00_-1-light-dark_00a200_26b126_-1-s-0&quot;); stroke: light-dark(rgb(255, 255, 255), rgb(18, 18, 18));"/><path d="M 5 379 L 140 433 L 275 379 M 140 433 L 140 595" fill="none" stroke="#ffffff" stroke-width="10" stroke-miterlimit="10" pointer-events="all" style="stroke: light-dark(rgb(255, 255, 255), rgb(18, 18, 18));"/></g></g><g data-cell-id="frHDiylbWHgKtSTXTxFc-6"><g transform="translate(0.5,0.5)"><path d="M 5 219 L 140 165 L 275 219 L 275 381 L 140 435 L 5 381 Z" fill="url(#drawio-svg-YrAJRbZXD4QwcOwPkMBc-gradient-light-dark_00ff00_008f00_-1-light-dark_00a200_26b126_-1-s-0)" stroke="#ffffff" stroke-width="10" stroke-miterlimit="10" pointer-events="all" style="fill: url(&quot;#drawio-svg-YrAJRbZXD4QwcOwPkMBc-gradient-light-dark_00ff00_008f00_-1-light-dark_00a200_26b126_-1-s-0&quot;); stroke: light-dark(rgb(255, 255, 255), rgb(18, 18, 18));"/><path d="M 5 219 L 140 273 L 275 219 M 140 273 L 140 435" fill="none" stroke="#ffffff" stroke-width="10" stroke-miterlimit="10" pointer-events="all" style="stroke: light-dark(rgb(255, 255, 255), rgb(18, 18, 18));"/></g></g><g data-cell-id="frHDiylbWHgKtSTXTxFc-7"><g transform="translate(0.5,0.5)"><path d="M 5 59 L 140 5 L 275 59 L 275 221 L 140 275 L 5 221 Z" fill="url(#drawio-svg-YrAJRbZXD4QwcOwPkMBc-gradient-light-dark_00ff00_008f00_-1-light-dark_00a200_26b126_-1-s-0)" stroke="#ffffff" stroke-width="10" stroke-miterlimit="10" pointer-events="all" style="fill: url(&quot;#drawio-svg-YrAJRbZXD4QwcOwPkMBc-gradient-light-dark_00ff00_008f00_-1-light-dark_00a200_26b126_-1-s-0&quot;); stroke: light-dark(rgb(255, 255, 255), rgb(18, 18, 18));"/><path d="M 5 59 L 140 113 L 275 59 M 140 113 L 140 275" fill="none" stroke="#ffffff" stroke-width="10" stroke-miterlimit="10" pointer-events="all" style="stroke: light-dark(rgb(255, 255, 255), rgb(18, 18, 18));"/></g></g><g data-cell-id="frHDiylbWHgKtSTXTxFc-8"><g transform="translate(0.5,0.5)"><path d="M 140 1073 L 275 1019 L 410 1073 L 410 1235 L 275 1289 L 140 1235 Z" fill="url(#drawio-svg-YrAJRbZXD4QwcOwPkMBc-gradient-light-dark_00ff00_008f00_-1-light-dark_00a200_26b126_-1-s-0)" stroke="#ffffff" stroke-width="10" stroke-miterlimit="10" pointer-events="all" style="fill: url(&quot;#drawio-svg-YrAJRbZXD4QwcOwPkMBc-gradient-light-dark_00ff00_008f00_-1-light-dark_00a200_26b126_-1-s-0&quot;); stroke: light-dark(rgb(255, 255, 255), rgb(18, 18, 18));"/><path d="M 140 1073 L 275 1127 L 410 1073 M 275 1127 L 275 1289" fill="none" stroke="#ffffff" stroke-width="10" stroke-miterlimit="10" pointer-events="all" style="stroke: light-dark(rgb(255, 255, 255), rgb(18, 18, 18));"/></g></g><g data-cell-id="frHDiylbWHgKtSTXTxFc-11"><g transform="translate(0.5,0.5)"><path d="M 275 1127 L 410 1073 L 545 1127 L 545 1289 L 410 1343 L 275 1289 Z" fill="url(#drawio-svg-YrAJRbZXD4QwcOwPkMBc-gradient-light-dark_00ff00_008f00_-1-light-dark_00a200_26b126_-1-s-0)" stroke="#ffffff" stroke-width="10" stroke-miterlimit="10" pointer-events="all" style="fill: url(&quot;#drawio-svg-YrAJRbZXD4QwcOwPkMBc-gradient-light-dark_00ff00_008f00_-1-light-dark_00a200_26b126_-1-s-0&quot;); stroke: light-dark(rgb(255, 255, 255), rgb(18, 18, 18));"/><path d="M 275 1127 L 410 1181 L 545 1127 M 410 1181 L 410 1343" fill="none" stroke="#ffffff" stroke-width="10" stroke-miterlimit="10" pointer-events="all" style="stroke: light-dark(rgb(255, 255, 255), rgb(18, 18, 18));"/></g></g><g data-cell-id="frHDiylbWHgKtSTXTxFc-15"><g transform="translate(0.5,0.5)"><path d="M 815 861 L 950 807 L 1085 861 L 1085 1023 L 950 1077 L 815 1023 Z" fill="url(#drawio-svg-YrAJRbZXD4QwcOwPkMBc-gradient-light-dark_005200_89cf89_-1-light-dark_000000_ededed_-1-s-0)" stroke="#ffffff" stroke-width="10" stroke-miterlimit="10" pointer-events="all" style="fill: url(&quot;#drawio-svg-YrAJRbZXD4QwcOwPkMBc-gradient-light-dark_005200_89cf89_-1-light-dark_000000_ededed_-1-s-0&quot;); stroke: light-dark(rgb(255, 255, 255), rgb(18, 18, 18));"/><path d="M 815 861 L 950 915 L 1085 861 M 950 915 L 950 1077" fill="none" stroke="#ffffff" stroke-width="10" stroke-miterlimit="10" pointer-events="all" style="stroke: light-dark(rgb(255, 255, 255), rgb(18, 18, 18));"/></g></g><g data-cell-id="frHDiylbWHgKtSTXTxFc-16"><g transform="translate(0.5,0.5)"><path d="M 815 701 L 950 647 L 1085 701 L 1085 863 L 950 917 L 815 863 Z" fill="url(#drawio-svg-YrAJRbZXD4QwcOwPkMBc-gradient-light-dark_005200_89cf89_-1-light-dark_000000_ededed_-1-s-0)" stroke="#ffffff" stroke-width="10" stroke-miterlimit="10" pointer-events="all" style="fill: url(&quot;#drawio-svg-YrAJRbZXD4QwcOwPkMBc-gradient-light-dark_005200_89cf89_-1-light-dark_000000_ededed_-1-s-0&quot;); stroke: light-dark(rgb(255, 255, 255), rgb(18, 18, 18));"/><path d="M 815 701 L 950 755 L 1085 701 M 950 755 L 950 917" fill="none" stroke="#ffffff" stroke-width="10" stroke-miterlimit="10" pointer-events="all" style="stroke: light-dark(rgb(255, 255, 255), rgb(18, 18, 18));"/></g></g><g data-cell-id="frHDiylbWHgKtSTXTxFc-17"><g transform="translate(0.5,0.5)"><path d="M 815 539 L 950 485 L 1085 539 L 1085 701 L 950 755 L 815 701 Z" fill="url(#drawio-svg-YrAJRbZXD4QwcOwPkMBc-gradient-light-dark_005200_89cf89_-1-light-dark_000000_ededed_-1-s-0)" stroke="#ffffff" stroke-width="10" stroke-miterlimit="10" pointer-events="all" style="fill: url(&quot;#drawio-svg-YrAJRbZXD4QwcOwPkMBc-gradient-light-dark_005200_89cf89_-1-light-dark_000000_ededed_-1-s-0&quot;); stroke: light-dark(rgb(255, 255, 255), rgb(18, 18, 18));"/><path d="M 815 539 L 950 593 L 1085 539 M 950 593 L 950 755" fill="none" stroke="#ffffff" stroke-width="10" stroke-miterlimit="10" pointer-events="all" style="stroke: light-dark(rgb(255, 255, 255), rgb(18, 18, 18));"/></g></g><g data-cell-id="frHDiylbWHgKtSTXTxFc-24"><g transform="translate(0.5,0.5)"><path d="M 275 539 L 410 485 L 545 539 L 545 701 L 410 755 L 275 701 Z" fill="url(#drawio-svg-YrAJRbZXD4QwcOwPkMBc-gradient-light-dark_00a500_22b022_-1-light-dark_005200_89cf89_-1-s-0)" stroke="#ffffff" stroke-width="10" stroke-miterlimit="10" pointer-events="all" style="fill: url(&quot;#drawio-svg-YrAJRbZXD4QwcOwPkMBc-gradient-light-dark_00a500_22b022_-1-light-dark_005200_89cf89_-1-s-0&quot;); stroke: light-dark(rgb(255, 255, 255), rgb(18, 18, 18));"/><path d="M 275 539 L 410 593 L 545 539 M 410 593 L 410 755" fill="none" stroke="#ffffff" stroke-width="10" stroke-miterlimit="10" pointer-events="all" style="stroke: light-dark(rgb(255, 255, 255), rgb(18, 18, 18));"/></g></g><g data-cell-id="frHDiylbWHgKtSTXTxFc-19"><g transform="translate(0.5,0.5)"><path d="M 275 379 L 410 325 L 545 379 L 545 541 L 410 595 L 275 541 Z" fill="url(#drawio-svg-YrAJRbZXD4QwcOwPkMBc-gradient-light-dark_00a500_22b022_-1-light-dark_005200_89cf89_-1-s-0)" stroke="#ffffff" stroke-width="10" stroke-miterlimit="10" pointer-events="all" style="fill: url(&quot;#drawio-svg-YrAJRbZXD4QwcOwPkMBc-gradient-light-dark_00a500_22b022_-1-light-dark_005200_89cf89_-1-s-0&quot;); stroke: light-dark(rgb(255, 255, 255), rgb(18, 18, 18));"/><path d="M 275 379 L 410 433 L 545 379 M 410 433 L 410 595" fill="none" stroke="#ffffff" stroke-width="10" stroke-miterlimit="10" pointer-events="all" style="stroke: light-dark(rgb(255, 255, 255), rgb(18, 18, 18));"/></g></g><g data-cell-id="frHDiylbWHgKtSTXTxFc-20"><g transform="translate(0.5,0.5)"><path d="M 275 219 L 410 165 L 545 219 L 545 381 L 410 435 L 275 381 Z" fill="url(#drawio-svg-YrAJRbZXD4QwcOwPkMBc-gradient-light-dark_00a500_22b022_-1-light-dark_005200_89cf89_-1-s-0)" stroke="#ffffff" stroke-width="10" stroke-miterlimit="10" pointer-events="all" style="fill: url(&quot;#drawio-svg-YrAJRbZXD4QwcOwPkMBc-gradient-light-dark_00a500_22b022_-1-light-dark_005200_89cf89_-1-s-0&quot;); stroke: light-dark(rgb(255, 255, 255), rgb(18, 18, 18));"/><path d="M 275 219 L 410 273 L 545 219 M 410 273 L 410 435" fill="none" stroke="#ffffff" stroke-width="10" stroke-miterlimit="10" pointer-events="all" style="stroke: light-dark(rgb(255, 255, 255), rgb(18, 18, 18));"/></g></g><g data-cell-id="frHDiylbWHgKtSTXTxFc-25"><g transform="translate(0.5,0.5)"><path d="M 275 59 L 410 5 L 545 59 L 545 221 L 410 275 L 275 221 Z" fill="url(#drawio-svg-YrAJRbZXD4QwcOwPkMBc-gradient-light-dark_00a500_22b022_-1-light-dark_005200_89cf89_-1-s-0)" stroke="#ffffff" stroke-width="10" stroke-miterlimit="10" pointer-events="all" style="fill: url(&quot;#drawio-svg-YrAJRbZXD4QwcOwPkMBc-gradient-light-dark_00a500_22b022_-1-light-dark_005200_89cf89_-1-s-0&quot;); stroke: light-dark(rgb(255, 255, 255), rgb(18, 18, 18));"/><path d="M 275 59 L 410 113 L 545 59 M 410 113 L 410 275" fill="none" stroke="#ffffff" stroke-width="10" stroke-miterlimit="10" pointer-events="all" style="stroke: light-dark(rgb(255, 255, 255), rgb(18, 18, 18));"/></g></g><g data-cell-id="frHDiylbWHgKtSTXTxFc-26"><g transform="translate(0.5,0.5)"><path d="M 410 112 L 545 58 L 680 112 L 680 274 L 545 328 L 410 274 Z" fill="url(#drawio-svg-YrAJRbZXD4QwcOwPkMBc-gradient-light-dark_00a500_22b022_-1-light-dark_005200_89cf89_-1-s-0)" stroke="#ffffff" stroke-width="10" stroke-miterlimit="10" pointer-events="all" style="fill: url(&quot;#drawio-svg-YrAJRbZXD4QwcOwPkMBc-gradient-light-dark_00a500_22b022_-1-light-dark_005200_89cf89_-1-s-0&quot;); stroke: light-dark(rgb(255, 255, 255), rgb(18, 18, 18));"/><path d="M 410 112 L 545 166 L 680 112 M 545 166 L 545 328" fill="none" stroke="#ffffff" stroke-width="10" stroke-miterlimit="10" pointer-events="all" style="stroke: light-dark(rgb(255, 255, 255), rgb(18, 18, 18));"/></g></g><g data-cell-id="frHDiylbWHgKtSTXTxFc-37"><g transform="translate(0.5,0.5)"><path d="M 815 967 L 950 913 L 1085 967 L 1085 1129 L 950 1183 L 815 1129 Z" fill="url(#drawio-svg-YrAJRbZXD4QwcOwPkMBc-gradient-light-dark_005200_89cf89_-1-light-dark_000000_ededed_-1-s-0)" stroke="#ffffff" stroke-width="10" stroke-miterlimit="10" pointer-events="all" style="fill: url(&quot;#drawio-svg-YrAJRbZXD4QwcOwPkMBc-gradient-light-dark_005200_89cf89_-1-light-dark_000000_ededed_-1-s-0&quot;); stroke: light-dark(rgb(255, 255, 255), rgb(18, 18, 18));"/><path d="M 815 967 L 950 1021 L 1085 967 M 950 1021 L 950 1183" fill="none" stroke="#ffffff" stroke-width="10" stroke-miterlimit="10" pointer-events="all" style="stroke: light-dark(rgb(255, 255, 255), rgb(18, 18, 18));"/></g></g><g data-cell-id="frHDiylbWHgKtSTXTxFc-39"><g transform="translate(0.5,0.5)"><path d="M 815 803 L 950 749 L 1085 803 L 1085 965 L 950 1019 L 815 965 Z" fill="url(#drawio-svg-YrAJRbZXD4QwcOwPkMBc-gradient-light-dark_005200_89cf89_-1-light-dark_000000_ededed_-1-s-0)" stroke="#ffffff" stroke-width="10" stroke-miterlimit="10" pointer-events="all" style="fill: url(&quot;#drawio-svg-YrAJRbZXD4QwcOwPkMBc-gradient-light-dark_005200_89cf89_-1-light-dark_000000_ededed_-1-s-0&quot;); stroke: light-dark(rgb(255, 255, 255), rgb(18, 18, 18));"/><path d="M 815 803 L 950 857 L 1085 803 M 950 857 L 950 1019" fill="none" stroke="#ffffff" stroke-width="10" stroke-miterlimit="10" pointer-events="all" style="stroke: light-dark(rgb(255, 255, 255), rgb(18, 18, 18));"/></g></g><g data-cell-id="frHDiylbWHgKtSTXTxFc-41"><g transform="translate(0.5,0.5)"><path d="M 680 589 L 815 535 L 950 589 L 950 751 L 815 805 L 680 751 Z" fill="url(#drawio-svg-YrAJRbZXD4QwcOwPkMBc-gradient-light-dark_005200_89cf89_-1-light-dark_000000_ededed_-1-s-0)" stroke="#ffffff" stroke-width="10" stroke-miterlimit="10" pointer-events="all" style="fill: url(&quot;#drawio-svg-YrAJRbZXD4QwcOwPkMBc-gradient-light-dark_005200_89cf89_-1-light-dark_000000_ededed_-1-s-0&quot;); stroke: light-dark(rgb(255, 255, 255), rgb(18, 18, 18));"/><path d="M 680 589 L 815 643 L 950 589 M 815 643 L 815 805" fill="none" stroke="#ffffff" stroke-width="10" stroke-miterlimit="10" pointer-events="all" style="stroke: light-dark(rgb(255, 255, 255), rgb(18, 18, 18));"/></g></g><g data-cell-id="frHDiylbWHgKtSTXTxFc-42"><g transform="translate(0.5,0.5)"><path d="M 815 641 L 950 587 L 1085 641 L 1085 803 L 950 857 L 815 803 Z" fill="url(#drawio-svg-YrAJRbZXD4QwcOwPkMBc-gradient-light-dark_005200_89cf89_-1-light-dark_000000_ededed_-1-s-0)" stroke="#ffffff" stroke-width="10" stroke-miterlimit="10" pointer-events="all" style="fill: url(&quot;#drawio-svg-YrAJRbZXD4QwcOwPkMBc-gradient-light-dark_005200_89cf89_-1-light-dark_000000_ededed_-1-s-0&quot;); stroke: light-dark(rgb(255, 255, 255), rgb(18, 18, 18));"/><path d="M 815 641 L 950 695 L 1085 641 M 950 695 L 950 857" fill="none" stroke="#ffffff" stroke-width="10" stroke-miterlimit="10" pointer-events="all" style="stroke: light-dark(rgb(255, 255, 255), rgb(18, 18, 18));"/></g></g><g data-cell-id="frHDiylbWHgKtSTXTxFc-43"><g transform="translate(0.5,0.5)"><path d="M 950 695 L 1085 641 L 1220 695 L 1220 857 L 1085 911 L 950 857 Z" fill="url(#drawio-svg-YrAJRbZXD4QwcOwPkMBc-gradient-light-dark_005200_89cf89_-1-light-dark_000000_ededed_-1-s-0)" stroke="#ffffff" stroke-width="10" stroke-miterlimit="10" pointer-events="all" style="fill: url(&quot;#drawio-svg-YrAJRbZXD4QwcOwPkMBc-gradient-light-dark_005200_89cf89_-1-light-dark_000000_ededed_-1-s-0&quot;); stroke: light-dark(rgb(255, 255, 255), rgb(18, 18, 18));"/><path d="M 950 695 L 1085 749 L 1220 695 M 1085 749 L 1085 911" fill="none" stroke="#ffffff" stroke-width="10" stroke-miterlimit="10" pointer-events="all" style="stroke: light-dark(rgb(255, 255, 255), rgb(18, 18, 18));"/></g></g><g data-cell-id="frHDiylbWHgKtSTXTxFc-44"><g transform="translate(0.5,0.5)"><path d="M 950 533 L 1085 479 L 1220 533 L 1220 695 L 1085 749 L 950 695 Z" fill="url(#drawio-svg-YrAJRbZXD4QwcOwPkMBc-gradient-light-dark_005200_89cf89_-1-light-dark_000000_ededed_-1-s-0)" stroke="#ffffff" stroke-width="10" stroke-miterlimit="10" pointer-events="all" style="fill: url(&quot;#drawio-svg-YrAJRbZXD4QwcOwPkMBc-gradient-light-dark_005200_89cf89_-1-light-dark_000000_ededed_-1-s-0&quot;); stroke: light-dark(rgb(255, 255, 255), rgb(18, 18, 18));"/><path d="M 950 533 L 1085 587 L 1220 533 M 1085 587 L 1085 749" fill="none" stroke="#ffffff" stroke-width="10" stroke-miterlimit="10" pointer-events="all" style="stroke: light-dark(rgb(255, 255, 255), rgb(18, 18, 18));"/></g></g><g data-cell-id="frHDiylbWHgKtSTXTxFc-46"><g transform="translate(0.5,0.5)"><path d="M 680 425 L 815 371 L 950 425 L 950 587 L 815 641 L 680 587 Z" fill="url(#drawio-svg-YrAJRbZXD4QwcOwPkMBc-gradient-light-dark_005200_89cf89_-1-light-dark_000000_ededed_-1-s-0)" stroke="#ffffff" stroke-width="10" stroke-miterlimit="10" pointer-events="all" style="fill: url(&quot;#drawio-svg-YrAJRbZXD4QwcOwPkMBc-gradient-light-dark_005200_89cf89_-1-light-dark_000000_ededed_-1-s-0&quot;); stroke: light-dark(rgb(255, 255, 255), rgb(18, 18, 18));"/><path d="M 680 425 L 815 479 L 950 425 M 815 479 L 815 641" fill="none" stroke="#ffffff" stroke-width="10" stroke-miterlimit="10" pointer-events="all" style="stroke: light-dark(rgb(255, 255, 255), rgb(18, 18, 18));"/></g></g><g data-cell-id="frHDiylbWHgKtSTXTxFc-48"><g transform="translate(0.5,0.5)"><path d="M 680 263 L 815 209 L 950 263 L 950 425 L 815 479 L 680 425 Z" fill="url(#drawio-svg-YrAJRbZXD4QwcOwPkMBc-gradient-light-dark_005200_89cf89_-1-light-dark_000000_ededed_-1-s-0)" stroke="#ffffff" stroke-width="10" stroke-miterlimit="10" pointer-events="all" style="fill: url(&quot;#drawio-svg-YrAJRbZXD4QwcOwPkMBc-gradient-light-dark_005200_89cf89_-1-light-dark_000000_ededed_-1-s-0&quot;); stroke: light-dark(rgb(255, 255, 255), rgb(18, 18, 18));"/><path d="M 680 263 L 815 317 L 950 263 M 815 317 L 815 479" fill="none" stroke="#ffffff" stroke-width="10" stroke-miterlimit="10" pointer-events="all" style="stroke: light-dark(rgb(255, 255, 255), rgb(18, 18, 18));"/></g></g><g data-cell-id="frHDiylbWHgKtSTXTxFc-49"><g transform="translate(0.5,0.5)"><path d="M 950 371 L 1085 317 L 1220 371 L 1220 533 L 1085 587 L 950 533 Z" fill="url(#drawio-svg-YrAJRbZXD4QwcOwPkMBc-gradient-light-dark_005200_89cf89_-1-light-dark_000000_ededed_-1-s-0)" stroke="#ffffff" stroke-width="10" stroke-miterlimit="10" pointer-events="all" style="fill: url(&quot;#drawio-svg-YrAJRbZXD4QwcOwPkMBc-gradient-light-dark_005200_89cf89_-1-light-dark_000000_ededed_-1-s-0&quot;); stroke: light-dark(rgb(255, 255, 255), rgb(18, 18, 18));"/><path d="M 950 371 L 1085 425 L 1220 371 M 1085 425 L 1085 587" fill="none" stroke="#ffffff" stroke-width="10" stroke-miterlimit="10" pointer-events="all" style="stroke: light-dark(rgb(255, 255, 255), rgb(18, 18, 18));"/></g></g><g data-cell-id="frHDiylbWHgKtSTXTxFc-51"><g transform="translate(0.5,0.5)"><path d="M 680 112 L 815 58 L 950 112 L 950 274 L 815 328 L 680 274 Z" fill="url(#drawio-svg-YrAJRbZXD4QwcOwPkMBc-gradient-light-dark_005200_89cf89_-1-light-dark_000000_ededed_-1-s-0)" stroke="#ffffff" stroke-width="10" stroke-miterlimit="10" pointer-events="all" style="fill: url(&quot;#drawio-svg-YrAJRbZXD4QwcOwPkMBc-gradient-light-dark_005200_89cf89_-1-light-dark_000000_ededed_-1-s-0&quot;); stroke: light-dark(rgb(255, 255, 255), rgb(18, 18, 18));"/><path d="M 680 112 L 815 166 L 950 112 M 815 166 L 815 328" fill="none" stroke="#ffffff" stroke-width="10" stroke-miterlimit="10" pointer-events="all" style="stroke: light-dark(rgb(255, 255, 255), rgb(18, 18, 18));"/></g></g><g data-cell-id="frHDiylbWHgKtSTXTxFc-52"><g transform="translate(0.5,0.5)"><path d="M 950 210 L 1085 156 L 1220 210 L 1220 372 L 1085 426 L 950 372 Z" fill="url(#drawio-svg-YrAJRbZXD4QwcOwPkMBc-gradient-light-dark_005200_89cf89_-1-light-dark_000000_ededed_-1-s-0)" stroke="#ffffff" stroke-width="10" stroke-miterlimit="10" pointer-events="all" style="fill: url(&quot;#drawio-svg-YrAJRbZXD4QwcOwPkMBc-gradient-light-dark_005200_89cf89_-1-light-dark_000000_ededed_-1-s-0&quot;); stroke: light-dark(rgb(255, 255, 255), rgb(18, 18, 18));"/><path d="M 950 210 L 1085 264 L 1220 210 M 1085 264 L 1085 426" fill="none" stroke="#ffffff" stroke-width="10" stroke-miterlimit="10" pointer-events="all" style="stroke: light-dark(rgb(255, 255, 255), rgb(18, 18, 18));"/></g></g><g data-cell-id="frHDiylbWHgKtSTXTxFc-34"><g transform="translate(0.5,0.5)"><path d="M 545 167 L 680 113 L 815 167 L 815 329 L 680 383 L 545 329 Z" fill="url(#drawio-svg-YrAJRbZXD4QwcOwPkMBc-gradient-light-dark_00a500_22b022_-1-light-dark_005200_89cf89_-1-s-0)" stroke="#ffffff" stroke-width="10" stroke-miterlimit="10" pointer-events="all" style="fill: url(&quot;#drawio-svg-YrAJRbZXD4QwcOwPkMBc-gradient-light-dark_00a500_22b022_-1-light-dark_005200_89cf89_-1-s-0&quot;); stroke: light-dark(rgb(255, 255, 255), rgb(18, 18, 18));"/><path d="M 545 167 L 680 221 L 815 167 M 680 221 L 680 383" fill="none" stroke="#ffffff" stroke-width="10" stroke-miterlimit="10" pointer-events="all" style="stroke: light-dark(rgb(255, 255, 255), rgb(18, 18, 18));"/></g></g><g data-cell-id="frHDiylbWHgKtSTXTxFc-32"><g transform="translate(0.5,0.5)"><path d="M 410 589 L 545 535 L 680 589 L 680 751 L 545 805 L 410 751 Z" fill="url(#drawio-svg-YrAJRbZXD4QwcOwPkMBc-gradient-light-dark_00a500_22b022_-1-light-dark_005200_89cf89_-1-s-0)" stroke="#ffffff" stroke-width="10" stroke-miterlimit="10" pointer-events="all" style="fill: url(&quot;#drawio-svg-YrAJRbZXD4QwcOwPkMBc-gradient-light-dark_00a500_22b022_-1-light-dark_005200_89cf89_-1-s-0&quot;); stroke: light-dark(rgb(255, 255, 255), rgb(18, 18, 18));"/><path d="M 410 589 L 545 643 L 680 589 M 545 643 L 545 805" fill="none" stroke="#ffffff" stroke-width="10" stroke-miterlimit="10" pointer-events="all" style="stroke: light-dark(rgb(255, 255, 255), rgb(18, 18, 18));"/></g></g><g data-cell-id="frHDiylbWHgKtSTXTxFc-23"><g transform="translate(0.5,0.5)"><path d="M 545 965 L 680 911 L 815 965 L 815 1127 L 680 1181 L 545 1127 Z" fill="url(#drawio-svg-YrAJRbZXD4QwcOwPkMBc-gradient-light-dark_00a500_22b022_-1-light-dark_005200_89cf89_-1-s-0)" stroke="#ffffff" stroke-width="10" stroke-miterlimit="10" pointer-events="all" style="fill: url(&quot;#drawio-svg-YrAJRbZXD4QwcOwPkMBc-gradient-light-dark_00a500_22b022_-1-light-dark_005200_89cf89_-1-s-0&quot;); stroke: light-dark(rgb(255, 255, 255), rgb(18, 18, 18));"/><path d="M 545 965 L 680 1019 L 815 965 M 680 1019 L 680 1181" fill="none" stroke="#ffffff" stroke-width="10" stroke-miterlimit="10" pointer-events="all" style="stroke: light-dark(rgb(255, 255, 255), rgb(18, 18, 18));"/></g></g><g data-cell-id="frHDiylbWHgKtSTXTxFc-55"><g transform="translate(0.5,0.5)"><path d="M 545 803 L 680 749 L 815 803 L 815 965 L 680 1019 L 545 965 Z" fill="url(#drawio-svg-YrAJRbZXD4QwcOwPkMBc-gradient-light-dark_00a500_22b022_-1-light-dark_005200_89cf89_-1-s-0)" stroke="#ffffff" stroke-width="10" stroke-miterlimit="10" pointer-events="all" style="fill: url(&quot;#drawio-svg-YrAJRbZXD4QwcOwPkMBc-gradient-light-dark_00a500_22b022_-1-light-dark_005200_89cf89_-1-s-0&quot;); stroke: light-dark(rgb(255, 255, 255), rgb(18, 18, 18));"/><path d="M 545 803 L 680 857 L 815 803 M 680 857 L 680 1019" fill="none" stroke="#ffffff" stroke-width="10" stroke-miterlimit="10" pointer-events="all" style="stroke: light-dark(rgb(255, 255, 255), rgb(18, 18, 18));"/></g></g><g data-cell-id="frHDiylbWHgKtSTXTxFc-53"><g transform="translate(0.5,0.5)"><path d="M 545 643 L 680 589 L 815 643 L 815 805 L 680 859 L 545 805 Z" fill="url(#drawio-svg-YrAJRbZXD4QwcOwPkMBc-gradient-light-dark_00a500_22b022_-1-light-dark_005200_89cf89_-1-s-0)" stroke="#ffffff" stroke-width="10" stroke-miterlimit="10" pointer-events="all" style="fill: url(&quot;#drawio-svg-YrAJRbZXD4QwcOwPkMBc-gradient-light-dark_00a500_22b022_-1-light-dark_005200_89cf89_-1-s-0&quot;); stroke: light-dark(rgb(255, 255, 255), rgb(18, 18, 18));"/><path d="M 545 643 L 680 697 L 815 643 M 680 697 L 680 859" fill="none" stroke="#ffffff" stroke-width="10" stroke-miterlimit="10" pointer-events="all" style="stroke: light-dark(rgb(255, 255, 255), rgb(18, 18, 18));"/></g></g></g></g></g></svg>